<?xml version="1.0" standalone="no"?>
<!DOCTYPE svg PUBLIC "-//W3C//DTD SVG 20010904//EN"
 "http://www.w3.org/TR/2001/REC-SVG-20010904/DTD/svg10.dtd">
<svg version="1.0" xmlns="http://www.w3.org/2000/svg"
 width="825.000000pt" height="825.000000pt" viewBox="0 0 825.000000 825.000000"
 preserveAspectRatio="xMidYMid meet">

<g transform="translate(0.000000,825.000000) scale(0.100000,-0.100000)"
fill="#000000" stroke="none">
<path d="M3861 6734 c0 -5 16 -29 34 -54 56 -74 173 -264 219 -354 101 -197
169 -399 207 -611 25 -140 30 -403 11 -525 -41 -245 -141 -507 -270 -703 -25
-37 -42 -70 -39 -73 3 -3 34 29 69 71 36 43 69 74 78 73 13 -3 15 -43 15 -293
0 -282 -1 -291 -23 -341 -27 -60 -69 -103 -132 -136 -35 -18 -60 -23 -115 -22
-86 0 -135 23 -194 90 -64 73 -71 110 -71 387 l0 240 59 55 c82 74 163 182
208 278 l38 79 0 140 c-1 164 -16 219 -93 320 -98 131 -245 204 -484 240 -83
13 -264 20 -233 10 6 -2 54 -17 108 -34 250 -80 433 -207 504 -351 24 -47 28
-70 31 -161 7 -214 -71 -447 -206 -619 -42 -53 -131 -140 -143 -140 -5 0 -9
-76 -9 -168 0 -247 28 -333 149 -453 75 -74 145 -112 246 -134 88 -18 124 -18
201 0 138 32 251 112 320 227 63 103 67 126 73 413 l6 260 260 6 c287 6 313
11 420 74 110 65 196 181 230 310 66 256 -98 531 -360 601 -33 9 -110 14 -227
14 -97 0 -183 3 -192 6 -12 4 -16 20 -16 55 0 118 -49 334 -112 494 -76 193
-220 407 -383 570 -106 107 -186 175 -184 159z m1085 -1543 c205 -93 212 -366
12 -473 -42 -22 -52 -23 -361 -26 -287 -3 -318 -1 -324 13 -3 10 -2 20 3 24
41 28 214 388 214 445 0 32 24 36 220 36 168 0 201 -3 236 -19z"/>
<path d="M3669 6117 c-107 -57 -128 -213 -46 -339 65 -100 192 -135 272 -74
70 54 94 158 58 262 -21 63 -102 145 -159 162 -58 17 -75 15 -125 -11z"/>
<path d="M2930 5433 c-19 -2 -44 -8 -55 -13 -11 -5 -29 -10 -39 -12 -11 -2
-22 -10 -24 -18 -5 -13 -3 -13 11 -1 12 9 17 10 17 2 0 -7 10 -3 22 9 22 20
85 29 73 10 -3 -5 -12 -10 -19 -10 -7 0 -20 -6 -30 -13 -16 -12 -12 -13 33 -7
29 4 54 3 57 -2 3 -4 -7 -8 -23 -9 -24 0 -25 -1 -8 -8 11 -5 25 -6 30 -3 6 3
1 -5 -9 -17 -17 -18 -17 -21 -3 -15 28 11 19 -4 -13 -21 -17 -9 -30 -11 -30
-5 0 5 -7 10 -16 10 -10 0 -14 -6 -10 -15 3 -8 1 -15 -4 -15 -6 0 -10 -5 -10
-12 0 -9 3 -9 12 0 16 16 28 15 28 -3 0 -10 -10 -15 -30 -15 -33 0 -41 -15
-12 -23 9 -2 25 -8 35 -12 14 -6 16 -4 10 11 -5 14 -3 16 11 11 32 -12 596
-21 596 -10 0 25 -113 111 -206 158 l-99 50 -130 1 c-71 0 -146 -1 -165 -3z
m30 -183 c0 -5 -5 -10 -11 -10 -5 0 -7 5 -4 10 3 6 8 10 11 10 2 0 4 -4 4 -10z"/>
<path d="M2810 5281 c0 -5 -3 -17 -6 -25 -5 -12 -2 -15 10 -10 18 7 21 29 6
39 -5 3 -10 2 -10 -4z"/>
<path d="M2837 5223 c-4 -3 -7 -13 -7 -22 1 -13 3 -13 11 2 11 19 8 33 -4 20z"/>
<path d="M2800 4740 c6 -11 13 -20 16 -20 2 0 0 9 -6 20 -6 11 -13 20 -16 20
-2 0 0 -9 6 -20z"/>
<path d="M2860 4690 c0 -5 3 -10 8 -11 58 -6 56 -7 37 8 -22 15 -45 17 -45 3z"/>
<path d="M3105 4673 c-33 -2 -63 -10 -68 -16 -7 -9 -10 -9 -14 1 -6 15 -63 16
-63 1 0 -5 -4 -7 -10 -4 -17 11 -32 -5 -19 -21 9 -11 7 -14 -16 -14 -31 0 -30
-25 1 -25 10 -1 25 -5 33 -9 10 -7 5 -12 -20 -20 -27 -9 -33 -16 -31 -35 2
-21 -1 -23 -28 -19 -31 5 -40 -5 -17 -19 31 -19 163 -32 342 -33 l161 0 35 38
c44 47 71 87 97 140 l20 42 -171 -2 c-95 -1 -199 -3 -232 -5z m-95 -43 c0 -5
-4 -10 -10 -10 -5 0 -10 5 -10 10 0 6 5 10 10 10 6 0 10 -4 10 -10z m-50 -85
c0 -9 10 -16 23 -16 17 -1 16 -3 -8 -8 -34 -9 -50 1 -42 23 8 20 27 21 27 1z"/>
<path d="M1415 3566 c-171 -55 -284 -175 -329 -351 -53 -201 31 -429 196 -536
157 -101 340 -113 505 -33 80 38 157 109 198 181 35 64 34 85 -7 81 -26 -2
-39 -13 -70 -58 -49 -71 -88 -105 -168 -144 -54 -26 -79 -31 -152 -34 -187 -8
-327 76 -405 244 -26 54 -28 69 -28 174 0 109 2 119 32 182 82 173 262 271
441 239 127 -23 218 -81 282 -182 28 -43 36 -49 67 -49 33 0 35 1 28 28 -9 39
-73 129 -120 169 -47 40 -142 88 -205 102 -77 18 -188 12 -265 -13z"/>
<path d="M4967 3573 c-4 -3 -7 -154 -7 -335 0 -349 -4 -383 -48 -407 -23 -12
-91 -15 -117 -5 -22 9 -45 57 -45 96 0 57 -6 59 -126 56 l-109 -3 1 -75 c2
-152 80 -252 230 -296 68 -20 171 -15 247 11 65 23 148 101 178 167 24 52 24
59 27 411 2 265 0 362 -9 373 -8 10 -37 14 -114 14 -56 0 -105 -3 -108 -7z"/>
<path d="M5640 3381 c-106 -15 -218 -108 -261 -219 -33 -82 -33 -261 -1 -343
57 -143 174 -229 314 -229 56 0 141 30 174 61 26 25 44 18 44 -17 l0 -25 113
3 112 3 0 375 0 375 -112 3 -113 3 0 -29 c0 -41 -8 -44 -44 -18 -69 52 -136
69 -226 57z m197 -249 c64 -45 85 -150 47 -227 -53 -110 -208 -116 -269 -10
-54 91 -20 210 70 251 41 19 115 12 152 -14z"/>
<path d="M6680 3381 c-48 -10 -89 -33 -124 -70 -17 -17 -33 -31 -37 -31 -4 0
-9 19 -11 43 l-3 42 -110 0 -110 0 -3 -377 -2 -378 114 0 114 0 4 198 c3 188
4 199 28 241 34 61 75 83 166 89 l74 5 0 117 c0 139 -1 141 -100 121z"/>
<path d="M2386 3356 c-202 -85 -284 -353 -176 -573 108 -218 409 -255 575 -71
23 26 45 44 49 41 3 -3 6 -37 6 -75 l0 -68 35 0 35 0 0 381 0 380 -32 -3 -33
-3 -3 -72 c-2 -40 -5 -73 -8 -73 -2 0 -28 24 -58 53 -76 76 -130 100 -241 104
-78 3 -98 0 -149 -21z m277 -76 c111 -57 170 -156 171 -285 1 -104 -23 -173
-84 -235 -59 -60 -109 -82 -196 -88 -182 -12 -302 101 -312 293 -6 112 14 177
74 244 73 81 127 103 237 96 44 -2 84 -12 110 -25z"/>
<path d="M3385 3363 c-54 -22 -109 -66 -135 -108 -12 -19 -26 -35 -30 -35 -5
0 -10 33 -12 73 l-3 72 -30 0 -30 0 -3 -377 -2 -378 34 0 34 0 4 228 c4 184 8
237 23 279 37 108 136 183 241 183 57 0 78 15 72 52 -3 21 -9 23 -63 25 -37 2
-75 -4 -100 -14z"/>
<path d="M3915 3367 c-65 -22 -100 -44 -152 -94 -83 -82 -120 -189 -110 -324
16 -232 216 -389 448 -350 112 18 195 67 250 147 58 85 4 104 -70 25 -74 -79
-116 -96 -241 -96 -92 0 -111 3 -153 25 -27 13 -63 40 -79 59 -40 45 -78 127
-78 169 l0 32 328 0 c180 0 333 4 341 9 10 7 12 22 7 62 -19 154 -85 254 -206
315 -47 24 -69 29 -150 31 -59 2 -110 -2 -135 -10z m245 -84 c56 -26 105 -74
134 -133 36 -70 40 -97 16 -110 -23 -12 -548 -13 -569 -1 -11 7 -10 18 3 63
26 89 115 175 204 198 57 14 161 6 212 -17z"/>
<path d="M4570 2343 c0 -5 6 -19 13 -33 27 -53 28 -60 2 -72 -27 -12 -55 -63
-55 -101 0 -34 40 -89 72 -99 20 -7 37 -5 64 8 28 13 39 15 42 6 5 -15 32 -16
32 -1 0 6 -5 19 -11 30 -8 15 -6 31 7 65 19 51 11 70 -16 37 -10 -13 -21 -23
-24 -23 -7 0 -76 136 -76 150 0 5 16 10 35 10 24 0 35 5 35 15 0 12 -13 15
-60 15 -33 0 -60 -3 -60 -7z m85 -173 c31 -61 31 -75 3 -94 -29 -20 -38 -20
-66 4 -34 28 -39 78 -12 113 12 15 28 27 36 27 7 0 25 -22 39 -50z"/>
<path d="M1115 2328 c-10 -25 0 -288 10 -288 6 0 12 28 15 62 l5 63 68 3 67 3
0 -59 c0 -56 16 -92 33 -75 4 3 7 71 7 150 0 136 -1 143 -20 143 -18 0 -20 -7
-20 -65 l0 -65 -70 0 -70 0 0 64 c0 61 -14 94 -25 64z"/>
<path d="M1404 2332 c-18 -11 -18 -277 0 -291 19 -16 148 -10 153 6 3 8 -15
13 -59 15 l-63 3 0 50 0 50 58 3 c41 2 57 7 57 17 0 10 -16 15 -57 17 l-58 3
-3 46 c-3 52 1 54 83 58 45 2 55 8 35 21 -18 11 -130 13 -146 2z"/>
<path d="M1713 2328 c-6 -7 -33 -73 -60 -145 -39 -101 -48 -135 -38 -143 15
-12 23 -5 40 38 14 31 16 32 74 32 59 0 60 -1 78 -37 20 -40 43 -55 43 -27 0
20 -89 263 -103 282 -5 6 -13 12 -17 12 -4 0 -12 -6 -17 -12z m40 -111 c24
-76 23 -77 -29 -77 -33 0 -45 4 -42 13 3 6 13 36 22 65 10 28 21 52 25 52 4 0
15 -24 24 -53z"/>
<path d="M2121 2331 c-11 -7 -9 -11 8 -20 12 -7 26 -9 31 -6 6 4 19 3 30 0 18
-6 20 -17 22 -136 4 -174 22 -175 26 -1 2 95 6 132 15 133 24 1 72 10 75 14 2
2 1 8 -3 14 -8 13 -184 15 -204 2z"/>
<path d="M2807 2333 c-12 -12 -8 -291 4 -299 18 -11 29 17 29 79 l0 57 60 0
c47 0 60 3 60 15 0 12 -13 15 -61 15 l-60 0 3 53 3 52 63 3 c60 3 79 13 46 26
-21 8 -139 8 -147 -1z"/>
<path d="M3036 2333 c-11 -12 -7 -291 5 -299 22 -13 29 23 29 157 0 108 -3
138 -14 142 -8 3 -17 3 -20 0z"/>
<path d="M3120 2331 c-25 -17 -1 -26 77 -30 8 -1 11 -39 11 -125 0 -69 3 -130
7 -135 17 -29 25 11 25 129 0 140 0 140 62 140 19 0 28 4 26 13 -6 15 -186 22
-208 8z"/>
<path d="M3393 2333 c-15 -6 -19 -288 -4 -297 20 -13 30 26 33 125 l3 104 60
-114 c32 -62 65 -115 72 -118 7 -3 20 0 28 7 12 10 15 41 15 151 0 132 -1 139
-20 139 -19 0 -20 -7 -20 -110 0 -60 -4 -110 -8 -110 -4 0 -30 46 -57 102 -61
124 -70 134 -102 121z"/>
<path d="M3682 2332 c-9 -7 -12 -44 -10 -153 l3 -144 79 0 c53 0 81 4 83 12 3
8 -15 13 -59 15 l-63 3 -3 53 -3 52 60 0 c48 0 61 3 61 15 0 12 -13 15 -60 15
l-60 0 0 50 c0 28 5 51 10 51 6 1 15 3 20 4 6 1 28 3 50 4 28 1 40 5 40 16 0
12 -14 15 -67 15 -38 0 -74 -4 -81 -8z"/>
<path d="M3944 2321 c-33 -20 -48 -56 -39 -94 7 -27 28 -42 84 -57 57 -15 85
-44 71 -71 -29 -52 -102 -46 -122 11 -12 36 -38 40 -38 6 0 -59 78 -102 141
-76 83 35 78 133 -9 160 -80 25 -92 32 -92 56 0 54 75 63 112 13 22 -29 38
-30 38 -2 0 24 -59 73 -89 73 -14 0 -40 -9 -57 -19z"/>
<path d="M4208 2324 c-32 -17 -48 -43 -48 -78 0 -34 27 -57 97 -81 49 -17 58
-24 61 -47 2 -20 -4 -31 -22 -43 -36 -24 -72 -12 -98 30 -23 41 -38 45 -38 11
0 -63 78 -102 144 -71 42 20 66 77 47 112 -12 23 -69 53 -100 53 -33 0 -62 35
-52 62 6 18 17 24 49 26 35 3 43 -1 62 -28 15 -21 26 -28 32 -22 16 16 -1 52
-35 73 -38 23 -62 23 -99 3z"/>
<path d="M4926 2331 c-4 -5 -4 -16 0 -24 3 -8 20 -72 39 -141 18 -70 35 -130
38 -132 2 -2 11 -2 20 2 10 3 26 44 43 110 16 57 33 104 39 104 6 0 19 -30 29
-67 9 -38 22 -85 27 -105 7 -28 15 -38 29 -38 20 0 22 3 69 183 25 92 26 107
7 107 -16 0 -16 0 -47 -128 -12 -51 -26 -89 -30 -85 -4 4 -19 53 -34 108 -15
55 -31 104 -36 110 -20 20 -39 -19 -75 -158 -18 -73 -27 -75 -43 -12 -41 167
-44 175 -61 175 -5 0 -11 -4 -14 -9z"/>
<path d="M5354 2332 c-7 -4 -12 -58 -13 -143 -1 -108 1 -138 13 -148 19 -16
148 -11 153 6 3 8 -15 13 -59 15 l-63 3 0 50 0 50 58 3 c42 2 57 7 57 17 0 12
-14 15 -60 15 l-60 0 0 49 c0 56 8 62 78 59 46 -1 64 8 42 22 -18 11 -130 13
-146 2z"/>
<path d="M5575 2328 c-3 -8 -4 -77 -3 -153 l3 -140 74 0 c51 0 76 4 79 13 2 8
-12 12 -50 12 -30 0 -59 5 -66 12 -8 8 -12 53 -12 134 0 72 -4 125 -10 129 -6
3 -12 0 -15 -7z"/>
<path d="M5784 2327 c-2 -7 -3 -75 -2 -152 2 -100 6 -140 16 -143 9 -3 12 23
12 105 0 59 4 113 8 120 4 7 31 -34 66 -103 58 -112 87 -144 107 -113 5 8 9
75 9 150 0 108 -3 138 -14 142 -8 3 -17 3 -20 0 -3 -4 -6 -55 -6 -115 0 -59
-4 -108 -8 -108 -4 0 -30 44 -56 98 -27 53 -55 105 -64 115 -18 20 -41 22 -48
4z"/>
<path d="M6084 2327 c-2 -7 -3 -76 -2 -152 l3 -140 74 0 c51 0 76 4 79 13 3 9
-12 12 -52 12 -52 0 -57 2 -67 27 -5 15 -9 38 -7 52 3 24 8 26 61 31 72 6 75
24 3 28 -50 3 -54 5 -58 30 -2 15 -1 38 2 52 5 22 12 25 60 28 61 4 71 9 50
22 -23 15 -140 12 -146 -3z"/>
<path d="M6353 2325 c-81 -35 -65 -130 26 -152 81 -19 107 -66 56 -99 -35 -23
-72 -11 -97 31 -23 41 -38 45 -38 11 0 -35 36 -74 75 -82 76 -14 141 53 115
120 -10 26 -17 31 -102 61 -67 23 -75 64 -16 84 34 12 61 2 78 -29 6 -11 17
-20 25 -20 33 0 8 53 -35 75 -35 18 -46 18 -87 0z"/>
<path d="M6620 2329 c-41 -16 -60 -40 -60 -74 0 -45 17 -61 90 -87 52 -18 66
-28 68 -46 4 -30 -12 -49 -48 -57 -35 -8 -67 11 -79 47 -6 16 -14 28 -20 28
-20 0 -22 -20 -6 -54 42 -89 185 -61 185 35 0 46 -26 74 -78 84 -93 17 -113
79 -31 98 29 7 69 -16 69 -39 0 -8 7 -14 15 -14 30 0 17 49 -17 70 -36 22 -51
23 -88 9z"/>
<path d="M1910 2185 c0 -166 -5 -159 105 -153 83 4 85 26 3 30 l-63 3 -3 133
c-2 124 -4 132 -22 132 -19 0 -20 -7 -20 -145z"/>
<path d="M2382 2188 c3 -125 5 -143 20 -146 14 -3 17 7 20 60 l3 63 65 0 65 0
3 -60 c3 -64 16 -90 32 -65 5 8 10 77 10 153 0 130 -1 137 -20 137 -18 0 -20
-7 -20 -65 l0 -65 -70 0 -70 0 0 65 c0 59 -2 65 -20 65 -20 0 -20 -5 -18 -142z"/>
<path d="M2692 2063 c-17 -32 -24 -83 -12 -83 12 0 50 81 43 93 -7 12 -22 8
-31 -10z"/>
</g>
</svg>
